<mxfile host="app.diagrams.net" modified="2024-07-05T06:53:07.529Z" agent="Mozilla/5.0 (X11; Linux x86_64) AppleWebKit/537.36 (KHTML, like Gecko) Chrome/126.0.0.0 Safari/537.36" etag="cMiknIngcHNadrboQNee" version="24.6.4" type="github">
  <diagram name="ページ1" id="QVdreg9Fky29_SkKU2a9">
    <mxGraphModel dx="1434" dy="759" grid="1" gridSize="10" guides="1" tooltips="1" connect="1" arrows="1" fold="1" page="1" pageScale="1" pageWidth="827" pageHeight="1169" math="1" shadow="0">
      <root>
        <mxCell id="0" />
        <mxCell id="1" parent="0" />
        <mxCell id="Px0uahAT4pJJGUXZFg4s-1" value="" style="shape=image;verticalLabelPosition=bottom;labelBackgroundColor=default;verticalAlign=top;aspect=fixed;imageAspect=0;image=data:image/svg+xml,PD94bWwgdmVyc2lvbj0iMS4wIiBlbmNvZGluZz0iVVRGLTgiIHN0YW5kYWxvbmU9Im5vIj8+CjxzdmcKICAgeG1sbnM6ZGM9Imh0dHA6Ly9wdXJsLm9yZy9kYy9lbGVtZW50cy8xLjEvIgogICB4bWxuczpjYz0iaHR0cDovL2NyZWF0aXZlY29tbW9ucy5vcmcvbnMjIgogICB4bWxuczpyZGY9Imh0dHA6Ly93d3cudzMub3JnLzE5OTkvMDIvMjItcmRmLXN5bnRheC1ucyMiCiAgIHhtbG5zOnN2Zz0iaHR0cDovL3d3dy53My5vcmcvMjAwMC9zdmciCiAgIHhtbG5zPSJodHRwOi8vd3d3LnczLm9yZy8yMDAwL3N2ZyIKICAgeG1sbnM6eGxpbms9Imh0dHA6Ly93d3cudzMub3JnLzE5OTkveGxpbmsiCiAgIHdpZHRoPSI1NDQuMTY5OTgiCiAgIGhlaWdodD0iNTQ0Ljg2NDIiCiAgIHZlcnNpb249IjEuMSI+CiAgPG1ldGFkYXRhCiAgICAgaWQ9Im1ldGFkYXRhNyI+CiAgICA8cmRmOlJERj4KICAgICAgPGNjOldvcmsKICAgICAgICAgcmRmOmFib3V0PSIiPgogICAgICAgIDxkYzpmb3JtYXQ+aW1hZ2Uvc3ZnK3htbDwvZGM6Zm9ybWF0PgogICAgICAgIDxkYzp0eXBlCiAgICAgICAgICAgcmRmOnJlc291cmNlPSJodHRwOi8vcHVybC5vcmcvZGMvZGNtaXR5cGUvU3RpbGxJbWFnZSIgLz4KICAgICAgPC9jYzpXb3JrPgogICAgPC9yZGY6UkRGPgogIDwvbWV0YWRhdGE+CiAgPGcKICAgICBpZD0ibGF5ZXIxIgogICAgIHRyYW5zZm9ybT0idHJhbnNsYXRlKC02OS45ODA5OTQsLTE2MC4zMzI4OCkiPgogICAgPGcKICAgICAgIGlkPSJnMzY5OSIKICAgICAgIHRyYW5zZm9ybT0ibWF0cml4KDEuNTMyMzg4LDAsMCwxLjM5Mzk2NzEsLTU0LjkxMjEzNiwtNDEuNzkyMzk2KSI+CiAgICAgIDxwYXRoCiAgICAgICAgIGlkPSJwYXRoMjgzNiIKICAgICAgICAgZD0iTSAyNjAuNTA3NDQsMTcwLjY5NTE1IDEwNS45ODQxMiwzNDAuNzkwOTQgMjU5Ljg2MzYsNTEwLjE3OCA0MTQuMzg2OTEsMzQwLjA4MjIxIDI2MC41MDc0NCwxNzAuNjk1MTUgeiIKICAgICAgICAgc3R5bGU9ImZpbGw6IzAxOTgzMztmaWxsLW9wYWNpdHk6MTtzdHJva2U6IzAwMDAwMDtzdHJva2Utd2lkdGg6MC45NDU3MTU2N3B4O3N0cm9rZS1saW5lY2FwOmJ1dHQ7c3Ryb2tlLWxpbmVqb2luOm1pdGVyO3N0cm9rZS1vcGFjaXR5OjEiIC8+CiAgICAgIDxwYXRoCiAgICAgICAgIGlkPSJwYXRoMjgzOCIKICAgICAgICAgZD0ibSAyNTkuODYzNiwxNzEuNDAzODkgMCwtMTQuODgzMzggLTE2OC4wNDQxMDgsMTg0Ljk3OTE2IDE0LjE2NDYyOCwwIDE1My44Nzk0OCwtMTcwLjA5NTc4IHoiCiAgICAgICAgIHN0eWxlPSJmaWxsOiM2NmZlOTg7ZmlsbC1vcGFjaXR5OjE7c3Ryb2tlOiMwMDAwMDA7c3Ryb2tlLXdpZHRoOjAuOTQ1NzE1NjdweDtzdHJva2UtbGluZWNhcDpidXR0O3N0cm9rZS1saW5lam9pbjptaXRlcjtzdHJva2Utb3BhY2l0eToxIiAvPgogICAgICA8cGF0aAogICAgICAgICBzdHlsZT0iZmlsbDojNDVmZTAyO2ZpbGwtb3BhY2l0eToxO3N0cm9rZTojMDAwMDAwO3N0cm9rZS13aWR0aDowLjk0NTcxNTY3cHg7c3Ryb2tlLWxpbmVjYXA6YnV0dDtzdHJva2UtbGluZWpvaW46bWl0ZXI7c3Ryb2tlLW9wYWNpdHk6MSIKICAgICAgICAgZD0ibSAyNTkuNDc3MjksMTcxLjQwMzg5IDAsLTE0Ljg4MzM4IDE2OC4wNDQxLDE4NC45NzkxNiAtMTQuMTY0NjMsMCAtMTUzLjg3OTQ3LC0xNzAuMDk1NzggeiIKICAgICAgICAgaWQ9InBhdGgyODQwIiAvPgogICAgICA8cGF0aAogICAgICAgICBzdHlsZT0iZmlsbDojMDE3ZDE3O2ZpbGwtb3BhY2l0eToxO3N0cm9rZTojMDAwMDAwO3N0cm9rZS13aWR0aDowLjk0NTcxNTY3cHg7c3Ryb2tlLWxpbmVjYXA6YnV0dDtzdHJva2UtbGluZWpvaW46bWl0ZXI7c3Ryb2tlLW9wYWNpdHk6MSIKICAgICAgICAgZD0ibSAyNTkuODYzNiw1MTEuMTcwMjIgMCwxNC44ODMzOCAtMTY4LjA0NDEwOCwtMTg0Ljk3OTE2IDE0LjE2NDYyOCwwIDE1My44Nzk0OCwxNzAuMDk1NzggeiIKICAgICAgICAgaWQ9InBhdGgyODQyIiAvPgogICAgICA8cGF0aAogICAgICAgICBpZD0icGF0aDM2NTAiCiAgICAgICAgIGQ9Im0gMTIyLjk5NDQ4LDE3NS4zMDY0MyAxMDguMzUzOTYsMCA2LjYwMTM5LDcuMjY2NjUgMCwyMi4zMDExNiAtNS4yMzU1OSw3LjAxNjA4IC0xMS44MzY5OSwwIDAsMTEwLjc1NDA2IDEwMS45ODAxOSwtMTEwLjc1NDA2IC0xNi44NDQ5NCwwIC01LjkxODUsLTcuMDE2MDggMCwtMjMuNTU0MDMgNS40NjMyMywtNS41MTI2NCAxMDkuNzE5NzYsMCA1LjQ2MzIyLDYuMDEzNzkgMCwyMi4wNTA1OCAtMjQ4LjEyMTQzLDI4MC4xNDI1OCAtMjguMjI2NjYsMCAtOC4xNzAzMywtNS4xOTI1MiAwLC0yNjcuOTMzOTcgLTEzLjY4MjU3LDAgLTUuMDA3OTUsLTUuNTEyNjQgMCwtMjMuNTU0MDMgNS40NjMyMSwtNi41MTQ5MyB6IgogICAgICAgICBzdHlsZT0iZmlsbDpub25lO3N0cm9rZTojMDAwMDAwO3N0cm9rZS13aWR0aDoxOC45MTQzMTQyNztzdHJva2UtbGluZWNhcDpidXR0O3N0cm9rZS1saW5lam9pbjptaXRlcjtzdHJva2UtbWl0ZXJsaW1pdDo0O3N0cm9rZS1vcGFjaXR5OjE7c3Ryb2tlLWRhc2hhcnJheTpub25lIiAvPgogICAgICA8cGF0aAogICAgICAgICBpZD0icGF0aDI4NDQiCiAgICAgICAgIGQ9Im0gMjU5LjQ3NzI5LDUxMS4xNzAyMiAwLDE0Ljg4MzM4IDE2OC4wNDQxLC0xODQuOTc5MTYgLTE0LjE2NDYzLDAgLTE1My44Nzk0NywxNzAuMDk1NzggeiIKICAgICAgICAgc3R5bGU9ImZpbGw6IzAwNWQwNDtmaWxsLW9wYWNpdHk6MTtzdHJva2U6IzAwMDAwMDtzdHJva2Utd2lkdGg6MC45NDU3MTU2N3B4O3N0cm9rZS1saW5lY2FwOmJ1dHQ7c3Ryb2tlLWxpbmVqb2luOm1pdGVyO3N0cm9rZS1vcGFjaXR5OjEiIC8+CiAgICAgIDxwYXRoCiAgICAgICAgIHN0eWxlPSJmaWxsOm5vbmU7c3Ryb2tlOiMwMDAwMDA7c3Ryb2tlLXdpZHRoOjUuNjc0MjkzOTk7c3Ryb2tlLWxpbmVjYXA6YnV0dDtzdHJva2UtbGluZWpvaW46bWl0ZXI7c3Ryb2tlLW1pdGVybGltaXQ6NDtzdHJva2Utb3BhY2l0eToxO3N0cm9rZS1kYXNoYXJyYXk6bm9uZSIKICAgICAgICAgZD0iTSAyNTkuNDEwMTgsMTU1LjE0ODQ4IDkwLjczNDAyNiwzNDAuODIzMzkgMjU4LjcwNzM3LDUyNS43MjQ2NyA0MjcuMzgzNTMsMzQwLjA0OTc1IDI1OS40MTAxOCwxNTUuMTQ4NDggeiIKICAgICAgICAgaWQ9InBhdGgyODQ2IiAvPgogICAgICA8cGF0aAogICAgICAgICBpZD0icGF0aDM2NDAiCiAgICAgICAgIGQ9Im0gMjMyLjUwMDA4LDE4Ni42NDE2MyA2LjExNjU1LC0zLjU0MzY2IC02LjI3NzUxLC02LjkxMDE0IC0xMDkuMjkzMDUsMCAtNS41NTMxOSw2LjExMjgxIDAsMjMuMTIyNCA2LjE1Njc5LDYuNzc3MjUgMi45Mzc1NiwtNi43NzcyNSAtMy44NjMwOCwtNC4yNTI0IDAsLTE2LjMwMDg1IDIuODk3MzEsLTIuODM0OTIgMTA0LjMwMzI0LDAgMi41NzUzOCw0LjYwNjc2IHoiCiAgICAgICAgIHN0eWxlPSJmaWxsOiNmZWZlZmU7ZmlsbC1vcGFjaXR5OjE7c3Ryb2tlOiMwMDAwMDA7c3Ryb2tlLXdpZHRoOjAuOTQ1NzE1NjdweDtzdHJva2UtbGluZWNhcDpidXR0O3N0cm9rZS1saW5lam9pbjptaXRlcjtzdHJva2Utb3BhY2l0eToxIiAvPgogICAgICA8cGF0aAogICAgICAgICB0cmFuc2Zvcm09Im1hdHJpeCgwLjkwMTM4NjAxLDAsMCwwLjk5MjIyNTQyLC00MzcuNDIyODcsLTE4NS4zMDYxNSkiCiAgICAgICAgIGQ9Im0gODI4LjkzNzUsMzY5LjUgLTQuMjgxMjUsNC4yODEyNSAwLDE1LjcxODc1IDMuNzUsMy43NSAxOS44MTI1LDAgMCwxNS4xODc1IC0xMzEuMDYyNSwxMzIuODQzNzUgMCwtMTQ3Ljg0Mzc1IDIxLjc4MTI1LDAgNC40Njg3NSwtNC40Njg3NSAwLC0xNS45MDYyNSAtNC4xMjUsLTMuMTg3NSAtMTE0LjYyNSwwIC0zLjc1LDMuNzUgMCwxNi4yNSAzLjgxMjUsMy44MTI1IDE5LjkzNzUsMCAwLDI3Mi4yNSAzLjc1LDMuNzUgMjIuNjU2MjUsMCAyNzQuNjU2MjUsLTI4My40MDYyNSAwLC0xMi41IC00LjI4MTI1LC00LjI4MTI1IC0xMTIuNSwwIHoiCiAgICAgICAgIGlkPSJwYXRoMzYzMiIKICAgICAgICAgc3R5bGU9ImZpbGw6bm9uZTtzdHJva2U6IzAwMDAwMDtzdHJva2Utd2lkdGg6MXB4O3N0cm9rZS1saW5lY2FwOmJ1dHQ7c3Ryb2tlLWxpbmVqb2luOm1pdGVyO3N0cm9rZS1vcGFjaXR5OjEiIC8+CiAgICAgIDxwYXRoCiAgICAgICAgIGlkPSJwYXRoMzY0NiIKICAgICAgICAgZD0ibSAxNDMuNDgxNTgsMjA0Ljg3NDI0IDAsMjcwLjYyMDczIDMuMTg2ODgsNC4wMDkyIC0yLjQ5OTE2LDUuMjQzMDEgLTcuMDYxNDgsLTcuNzQ4NzYgMCwtMjY1LjEwODEgeiIKICAgICAgICAgc3R5bGU9ImZpbGw6I2ZlZmVmZTtmaWxsLW9wYWNpdHk6MTtzdHJva2U6IzAwMDAwMDtzdHJva2Utd2lkdGg6MC45NDU3MTU2N3B4O3N0cm9rZS1saW5lY2FwOmJ1dHQ7c3Ryb2tlLWxpbmVqb2luOm1pdGVyO3N0cm9rZS1vcGFjaXR5OjEiIC8+CiAgICAgIDxwYXRoCiAgICAgICAgIGlkPSJwYXRoMzY0NCIKICAgICAgICAgZD0ibSAxMjUuODI0NTEsMjA0Ljg3NDI0IC0xLjgyMTA4LDYuNTE0OTQgMTMuMjAyOCwwIDcuMjg0MywtNi41MTQ5NCAtMTguNjY2MDIsMCB6IgogICAgICAgICBzdHlsZT0iZmlsbDojODA4MDgwO2ZpbGwtb3BhY2l0eToxO3N0cm9rZTojMDAwMDAwO3N0cm9rZS13aWR0aDowLjk0NTcxNTY3cHg7c3Ryb2tlLWxpbmVjYXA6YnV0dDtzdHJva2UtbGluZWpvaW46bWl0ZXI7c3Ryb2tlLW9wYWNpdHk6MSIgLz4KICAgICAgPHBhdGgKICAgICAgICAgaWQ9InBhdGgzNjM4IgogICAgICAgICBkPSJtIDMwNy4xODYzNiwyMTIuMTkxNDQgMi44OTczMSwtNi41NTU3NyAtNC4xODUwMSwtNC4yNTI0IDAsLTE0LjUyOTAxIDQuODI4ODYsLTUuMzE1NTEgMTAwLjc2MjA4LDAgMy44NjMwOCw1LjY2OTg3IDUuNDcyNywtNC4yNTI0IC01LjYzMzY2LC02LjIwMTQxIC0xMDguMzI3MjksMCAtNS4zOTIyMSw1LjkzNTY0IDAsMjMuMjk5NTcgNS41OTM0Miw1LjgwMjc2IG0gLTg3LjU0MzA5LDExMS44Nzc4NSAtMTAuNTIyODgsMjguMTA1NjYgMTE4Ljc4OTgsLTEzMS4xMTU1IDAsLTE1LjU5MjExIC0xMDguMjY2OTIsMTE4LjYwMTk1IHoiCiAgICAgICAgIHN0eWxlPSJmaWxsOiNmZWZlZmU7ZmlsbC1vcGFjaXR5OjE7c3Ryb2tlOiMwMDAwMDA7c3Ryb2tlLXdpZHRoOjAuOTQ1NzE1NjdweDtzdHJva2UtbGluZWNhcDpidXR0O3N0cm9rZS1saW5lam9pbjptaXRlcjtzdHJva2Utb3BhY2l0eToxIiAvPgogICAgICA8cGF0aAogICAgICAgICBpZD0icGF0aDM2NDIiCiAgICAgICAgIGQ9Im0gMjMyLjI1ODk2LDE4NS44MzA1NiA1LjIzNTYsLTMuNzU4NjIgMCwyMi44MDIzIC02LjAzMjMxLDYuNjQwMjMgLTExLjcyMzE3LDAgMCwxMTIuMzgyNzcgLTEwLjY5ODgyLDI3LjgxMzgxIDAsLTE0Ni44MzY4MSAxOS41NzY1NiwwIDMuNjQyMTQsLTMuMjU3NDcgMCwtMTUuNzg2MjEgeiIKICAgICAgICAgc3R5bGU9ImZpbGw6IzgwODA4MDtmaWxsLW9wYWNpdHk6MTtzdHJva2U6IzAwMDAwMDtzdHJva2Utd2lkdGg6MC45NDU3MTU2N3B4O3N0cm9rZS1saW5lY2FwOmJ1dHQ7c3Ryb2tlLWxpbmVqb2luOm1pdGVyO3N0cm9rZS1vcGFjaXR5OjEiIC8+CiAgICAgIDxwYXRoCiAgICAgICAgIHRyYW5zZm9ybT0ibWF0cml4KDAuOTAxMzg2MDEsMCwwLDAuOTkyMjI1NDIsLTQzNy40MjI4NywtMTg1LjMwNjE1KSIKICAgICAgICAgZD0ibSA4MjguOTM3NSwzNjkuNSAtNC4yODEyNSw0LjI4MTI1IDAsMTUuNzE4NzUgMy43NSwzLjc1IDE5LjgxMjUsMCAwLDE1LjE4NzUgLTEzMS4wNjI1LDEzMi44NDM3NSAwLC0xNDcuODQzNzUgMjEuNzgxMjUsMCA0LjQ2ODc1LC00LjQ2ODc1IDAsLTE1LjkwNjI1IC00LjEyNSwtMy4xODc1IC0xMTQuNjI1LDAgLTMuNzUsMy43NSAwLDE2LjI1IDMuODEyNSwzLjgxMjUgMTkuOTM3NSwwIDAsMjcyLjI1IDMuNzUsMy43NSAyMi42NTYyNSwwIDI3NC42NTYyNSwtMjgzLjQwNjI1IDAsLTEyLjUgLTQuMjgxMjUsLTQuMjgxMjUgLTExMi41LDAgeiIKICAgICAgICAgaWQ9InBhdGgzNjIyIgogICAgICAgICBzdHlsZT0iZmlsbDojY2NjY2NjO2ZpbGwtb3BhY2l0eToxO3N0cm9rZTojMDAwMDAwO3N0cm9rZS13aWR0aDoxcHg7c3Ryb2tlLWxpbmVjYXA6YnV0dDtzdHJva2UtbGluZWpvaW46bWl0ZXI7c3Ryb2tlLW9wYWNpdHk6MSIgLz4KICAgICAgPHBhdGgKICAgICAgICAgaWQ9InBhdGgzNjM2IgogICAgICAgICBkPSJtIDQxNS4zNTI2OCwxODUuOTMyOSA1LjQ5ODQ5LC0zLjQ5NDQ4IDAsMjEuOTIxNTIgLTI0OS4zOTExMSwyODAuNTIxMyAtMjYuNDc3NDYsMCAyLjUyOTY2LC01LjUzMzEgMjAuMjgxMTksMCAyNDcuMjM3MzEsLTI4MS4wMTI0MSB6IgogICAgICAgICBzdHlsZT0iZmlsbDojODA4MDgwO2ZpbGwtb3BhY2l0eToxO3N0cm9rZTojMDAwMDAwO3N0cm9rZS13aWR0aDowLjk0NTcxNTY3cHg7c3Ryb2tlLWxpbmVjYXA6YnV0dDtzdHJva2UtbGluZWpvaW46bWl0ZXI7c3Ryb2tlLW9wYWNpdHk6MSIgLz4KICAgICAgPHBhdGgKICAgICAgICAgaWQ9InBhdGgzNjUyIgogICAgICAgICBkPSJtIDMyNy4yOTYzMSwyMDUuMjUwMDkgLTUuNTc3MDMsNi4zODk2NiAtMTQuNTY4NjEsMCAzLjQxNDUyLC02LjM4OTY2IGMgMC4xMTM4MiwwIDE2LjczMTEyLDAgMTYuNzMxMTIsMCB6IgogICAgICAgICBzdHlsZT0iZmlsbDojODA4MDgwO2ZpbGwtb3BhY2l0eToxO3N0cm9rZTojMDAwMDAwO3N0cm9rZS13aWR0aDowLjk0NTcxNTY3cHg7c3Ryb2tlLWxpbmVjYXA6YnV0dDtzdHJva2UtbGluZWpvaW46bWl0ZXI7c3Ryb2tlLW9wYWNpdHk6MSIgLz4KICAgICAgPGcKICAgICAgICAgdHJhbnNmb3JtPSJtYXRyaXgoMC45MDEzODYwMSwwLDAsMC45OTIyMjU0MiwtOTIuNTMwMjg4LC0xOTIuMjM3OTEpIgogICAgICAgICBpZD0iZzM2NzMiPgogICAgICAgIDxwYXRoCiAgICAgICAgICAgc3R5bGU9ImZpbGw6I2NjY2NjYztmaWxsLW9wYWNpdHk6MTtzdHJva2U6IzAwMDAwMDtzdHJva2Utd2lkdGg6ODtzdHJva2UtbGluZWNhcDpidXR0O3N0cm9rZS1saW5lam9pbjptaXRlcjtzdHJva2UtbWl0ZXJsaW1pdDoxMDtzdHJva2Utb3BhY2l0eToxO3N0cm9rZS1kYXNoYXJyYXk6bm9uZSIKICAgICAgICAgICBpZD0icGF0aDM2NzEiCiAgICAgICAgICAgZD0ibSAzOTkuNzgxMjUsNTYwIGEgMS4yMzMwMTAyLDEuMjMzMDEwMiAwIDAgMCAtMC41NjI1LDAuMjgxMjUgbCAtNS4zMTI1LDQuNTYyNSBBIDEuMjMzMDEwMiwxLjIzMzAxMDIgMCAwIDAgMzkzLjU2MjUsNTY1LjM3NSBMIDM4OC4yNSw1ODAuMjUgYSAxLjIzMzAxMDIsMS4yMzMwMTAyIDAgMCAwIDAuMjgxMjUsMS4yODEyNSBsIDQuMDYyNSw0LjA2MjUgYSAxLjIzMzAxMDIsMS4yMzMwMTAyIDAgMCAwIDAuODc1LDAuMzQzNzUgbCAxNi40MDYyNSwwIGEgMS4yMzMwMTAyLDEuMjMzMDEwMiAwIDAgMCAwLjg3NSwtMC4zNDM3NSBsIDQuMjgxMjUsLTQuMzEyNSBhIDEuMjMzMDEwMiwxLjIzMzAxMDIgMCAwIDAgMC4zMTI1LC0wLjUzMTI1IGwgNC41NjI1LC0xNS42NTYyNSBhIDEuMjMzMDEwMiwxLjIzMzAxMDIgMCAwIDAgLTAuMzEyNSwtMS4yMTg3NSBsIC0zLjUzMTI1LC0zLjUzMTI1IEEgMS4yMzMwMTAyLDEuMjMzMDEwMiAwIDAgMCA0MTUuMTg3NSw1NjAgbCAtMTUuMTU2MjUsMCBhIDEuMjMzMDEwMiwxLjIzMzAxMDIgMCAwIDAgLTAuMjUsMCB6IG0gLTMwLjA2MjUsNDEuOTM3NSBhIDEuMjMzMDEwMiwxLjIzMzAxMDIgMCAwIDAgLTAuOTM3NSwwLjkwNjI1IGwgLTIuMDMxMjUsOC4wNjI1IGEgMS4yMzMwMTAyLDEuMjMzMDEwMiAwIDAgMCAxLjE4NzUsMS41MzEyNSBsIDkuNjU2MjUsMCAtMjMuOTM3NSw2OC4zNDM3NSBhIDEuMjMzMDEwMiwxLjIzMzAxMDIgMCAwIDAgMS4xNTYyNSwxLjYyNSBsIDM0Ljg0Mzc1LDAgYSAxLjIzMzAxMDIsMS4yMzMwMTAyIDAgMCAwIDEuMTg3NSwtMC44NDM3NSBsIDIuMjgxMjUsLTcuMzQzNzUgYSAxLjIzMzAxMDIsMS4yMzMwMTAyIDAgMCAwIC0xLjE4NzUsLTEuNTkzNzUgbCAtNy44NzUsMCAyMy42ODc1LC02OS4wNjI1IGEgMS4yMzMwMTAyLDEuMjMzMDEwMiAwIDAgMCAtMS4xNTYyNSwtMS42MjUgbCAtMzYuNjI1LDAgYSAxLjIzMzAxMDIsMS4yMzMwMTAyIDAgMCAwIC0wLjI1LDAgeiBtIDExMC44NzUsMC4yNSBhIDEuMjMzMDEwMiwxLjIzMzAxMDIgMCAwIDAgLTAuNjg3NSwwLjQwNjI1IGwgLTcuMjUsOC4xODc1IC0xMS41MzEyNSwwIC03LjY4NzUsLTcuOTY4NzUgYSAxLjIzMzAxMDIsMS4yMzMwMTAyIDAgMCAwIC0wLjg3NSwtMC4zNzUgbCAtMjcuNTMxMjUsMCBBIDEuMjMzMDEwMiwxLjIzMzAxMDIgMCAwIDAgNDIzLjg3NSw2MDMuMjUgbCAtMi41MzEyNSw3LjU2MjUgYSAxLjIzMzAxMDIsMS4yMzMwMTAyIDAgMCAwIDEuMTU2MjUsMS42MjUgbCA3LjM3NSwwIC0yMi45Mzc1LDY3LjU5Mzc1IGEgMS4yMzMwMTAyLDEuMjMzMDEwMiAwIDAgMCAxLjE1NjI1LDEuNjI1IGwgMjkuMzEyNSwwIGEgMS4yMzMwMTAyLDEuMjMzMDEwMiAwIDAgMCAxLjE1NjI1LC0wLjgxMjUgbCAyLjI1LC02LjU5Mzc1IGEgMS4yMzMwMTAyLDEuMjMzMDEwMiAwIDAgMCAtMS4xNTYyNSwtMS42MjUgbCAtNS4xMjUsMCAxNC42MjUsLTQ2LjAzMTI1IDI2LjQ2ODc1LDAgLTE2LjY4NzUsNTMuNDY4NzUgYSAxLjIzMzAxMDIsMS4yMzMwMTAyIDAgMCAwIDEuMTg3NSwxLjU5Mzc1IGwgMjguMjgxMjUsMCBhIDEuMjMzMDEwMiwxLjIzMzAxMDIgMCAwIDAgMS4xMjUsLTAuNzUgbCAyLjUzMTI1LC02LjA2MjUgYSAxLjIzMzAxMDIsMS4yMzMwMTAyIDAgMCAwIC0xLjEyNSwtMS42ODc1IGwgLTUuMTI1LDAgMTQuODc1LC00Ni44MTI1IDI1LjE4NzUsMCAtMTYuOTM3NSw1My43MTg3NSBhIDEuMjMzMDEwMiwxLjIzMzAxMDIgMCAwIDAgMS4xODc1LDEuNTkzNzUgbCAzMS4wNjI1LDAgYSAxLjIzMzAxMDIsMS4yMzMwMTAyIDAgMCAwIDEuMTU2MjUsLTAuNzgxMjUgbCAyLjUzMTI1LC02LjU5Mzc1IGEgMS4yMzMwMTAyLDEuMjMzMDEwMiAwIDAgMCAtMS4xNTYyNSwtMS42NTYyNSBsIC02LjE1NjI1LDAgMTguNzE4NzUsLTYwLjc4MTI1IGEgMS4yMzMwMTAyLDEuMjMzMDEwMiAwIDAgMCAtMC4xODc1LC0xLjEyNSBsIC01LjgxMjUsLTcuODEyNSBhIDEuMjMzMDEwMiwxLjIzMzAxMDIgMCAwIDAgLTEsLTAuNDY4NzUgbCAtMjIuMjE4NzUsMCBhIDEuMjMzMDEwMiwxLjIzMzAxMDIgMCAwIDAgLTAuOTA2MjUsMC4zNzUgbCAtNyw3LjY4NzUgLTEyLjI1LDAgLTcuMjUsLTcuOTM3NSBhIDEuMjMzMDEwMiwxLjIzMzAxMDIgMCAwIDAgLTAuOTA2MjUsLTAuMzc1IGwgLTE3LjkwNjI1LDAgYSAxLjIzMzAxMDIsMS4yMzMwMTAyIDAgMCAwIC0wLjI1LDAgeiIgLz4KICAgICAgICA8cGF0aAogICAgICAgICAgIGQ9Im0gNDAwLjAzMTI1LDU2MS4yMTg3NSAtNS4zMTI1LDQuNTYyNSAtNS4zMTI1LDE0Ljg3NSA0LjA2MjUsNC4wNjI1IDE2LjQwNjI1LDAgNC4yODEyNSwtNC4zMTI1IDQuNTYyNSwtMTUuNjU2MjUgLTMuNTMxMjUsLTMuNTMxMjUgLTE1LjE1NjI1LDAgeiBtIC0zMC4wNjI1LDQxLjkzNzUgLTIuMDMxMjUsOC4wNjI1IDExLjM3NSwwIC0yNC41LDY5Ljk2ODc1IDM0Ljg0Mzc1LDAgMi4yODEyNSwtNy4zNDM3NSAtOS41OTM3NSwwIDI0LjI1LC03MC42ODc1IC0zNi42MjUsMCB6IG0gMTEwLjg3NSwwLjI1IEwgNDczLjI1LDYxMiBsIC0xMi42MjUsMCAtOC4wNjI1LC04LjM0Mzc1IC0yNy41MzEyNSwwIC0yLjUzMTI1LDcuNTYyNSA5LjA5Mzc1LDAgLTIzLjUsNjkuMjE4NzUgMjkuMzEyNSwwIDIuMjUsLTYuNTkzNzUgLTYuODEyNSwwIDE1LjQwNjI1LC00OC40Njg3NSAyOS4wNjI1LDAgLTE3LjE4NzUsNTUuMDYyNSAyOC4yODEyNSwwIDIuNTMxMjUsLTYuMDYyNSAtNi44MTI1LDAgMTUuNjU2MjUsLTQ5LjI1IDI3Ljc4MTI1LDAgLTE3LjQzNzUsNTUuMzEyNSAzMS4wNjI1LDAgMi41MzEyNSwtNi41OTM3NSAtNy44NDM3NSwwIDE5LjIxODc1LC02Mi4zNzUgLTUuODEyNSwtNy44MTI1IC0yMi4yMTg3NSwwIC03LjM0Mzc1LDguMDYyNSAtMTMuMzc1LDAgLTcuNTkzNzUsLTguMzEyNSAtMTcuOTA2MjUsMCB6IgogICAgICAgICAgIGlkPSJwYXRoMzY2NSIKICAgICAgICAgICBzdHlsZT0iZmlsbDojY2NjY2NjO2ZpbGwtb3BhY2l0eToxO3N0cm9rZTojMDAwMDAwO3N0cm9rZS13aWR0aDoxO3N0cm9rZS1saW5lY2FwOmJ1dHQ7c3Ryb2tlLWxpbmVqb2luOm1pdGVyO3N0cm9rZS1taXRlcmxpbWl0OjEwO3N0cm9rZS1vcGFjaXR5OjE7c3Ryb2tlLWRhc2hhcnJheTpub25lIiAvPgogICAgICA8L2c+CiAgICA8L2c+CiAgPC9nPgo8L3N2Zz4K;" vertex="1" parent="1">
          <mxGeometry x="50" y="110" width="69.87" height="70" as="geometry" />
        </mxCell>
      </root>
    </mxGraphModel>
  </diagram>
</mxfile>
